P2 
5 9 
255 
0 50 0 50 0
50 255 0 255 50 
0 255 0 255 0 
50 255 0 255 50 
0 255 255 255 0 
50 255 0 255 50 
0 255 0 255 0 
50 255 0 255 50 
0 50 0 50 0 
